<svg id="Group_22" data-name="Group 22" xmlns="http://www.w3.org/2000/svg" xmlns:xlink="http://www.w3.org/1999/xlink" width="196.467" height="196.464" viewBox="0 0 196.467 196.464">
  <defs>
    <linearGradient id="linear-gradient" x1="-5.336" y1="4.377" x2="-5.325" y2="4.377" gradientUnits="objectBoundingBox">
      <stop offset="0" stop-color="#006bb3"/>
      <stop offset="0.305" stop-color="#025ea5"/>
      <stop offset="0.876" stop-color="#073d81"/>
      <stop offset="1" stop-color="#093679"/>
    </linearGradient>
    <linearGradient id="linear-gradient-2" x1="-56.401" y1="19.396" x2="-56.245" y2="19.396" gradientUnits="objectBoundingBox">
      <stop offset="0" stop-color="#8d8e90"/>
      <stop offset="0.082" stop-color="#9a9b9d"/>
      <stop offset="0.37" stop-color="#c5c6c7"/>
      <stop offset="0.629" stop-color="#e5e5e5"/>
      <stop offset="0.848" stop-color="#f8f8f8"/>
      <stop offset="1" stop-color="#fff"/>
    </linearGradient>
    <linearGradient id="linear-gradient-3" x1="-41.462" y1="17.605" x2="-41.391" y2="17.605" xlink:href="#linear-gradient-2"/>
    <linearGradient id="linear-gradient-4" x1="-21.994" y1="29.493" x2="-21.941" y2="29.493" xlink:href="#linear-gradient-2"/>
    <linearGradient id="linear-gradient-5" x1="-100.369" y1="18.934" x2="-100.213" y2="18.934" xlink:href="#linear-gradient-2"/>
    <linearGradient id="linear-gradient-6" x1="-31.358" y1="56.775" x2="-31.305" y2="56.775" xlink:href="#linear-gradient-2"/>
    <linearGradient id="linear-gradient-7" x1="-45.228" y1="8.05" x2="-45.138" y2="8.05" gradientUnits="objectBoundingBox">
      <stop offset="0" stop-color="#0071b2"/>
      <stop offset="0.498" stop-color="#006fb0"/>
      <stop offset="0.679" stop-color="#0168a9"/>
      <stop offset="0.808" stop-color="#035c9e"/>
      <stop offset="0.911" stop-color="#054b8d"/>
      <stop offset="1" stop-color="#093679"/>
    </linearGradient>
    <linearGradient id="linear-gradient-8" x1="-20.506" y1="12.197" x2="-20.468" y2="12.197" gradientUnits="objectBoundingBox">
      <stop offset="0" stop-color="#0064a8"/>
      <stop offset="0.281" stop-color="#015ca0"/>
      <stop offset="0.71" stop-color="#05478b"/>
      <stop offset="1" stop-color="#093679"/>
    </linearGradient>
    <linearGradient id="linear-gradient-9" x1="-9.885" y1="23.134" x2="-9.866" y2="23.134" gradientUnits="objectBoundingBox">
      <stop offset="0" stop-color="#003d7c"/>
      <stop offset="0.212" stop-color="#023571"/>
      <stop offset="0.548" stop-color="#042e67"/>
      <stop offset="1" stop-color="#052c65"/>
    </linearGradient>
    <linearGradient id="linear-gradient-10" x1="-51.893" y1="9.053" x2="-51.804" y2="9.053" gradientUnits="objectBoundingBox">
      <stop offset="0" stop-color="#1d67ab"/>
      <stop offset="0.517" stop-color="#1c65a9"/>
      <stop offset="0.703" stop-color="#195ea2"/>
      <stop offset="0.836" stop-color="#145296"/>
      <stop offset="0.942" stop-color="#0e4285"/>
      <stop offset="1" stop-color="#093679"/>
    </linearGradient>
    <linearGradient id="linear-gradient-11" x1="-19.693" y1="14.598" x2="-19.654" y2="14.598" xlink:href="#linear-gradient-7"/>
    <linearGradient id="linear-gradient-12" x1="-8.781" y1="22.649" x2="-8.762" y2="22.649" xlink:href="#linear-gradient-7"/>
    <linearGradient id="linear-gradient-13" x1="-32.869" y1="29.689" x2="-32.797" y2="29.689" xlink:href="#linear-gradient-2"/>
    <linearGradient id="linear-gradient-14" x1="-5.931" y1="4.907" x2="-5.919" y2="4.907" xlink:href="#linear-gradient"/>
  </defs>
  <g id="Group_21" data-name="Group 21">
    <path id="Path_158" data-name="Path 158" d="M504.584,87.7A74.782,74.782,0,0,0,493.53,61.487a75.525,75.525,0,0,0-34.535-28.033A74.354,74.354,0,0,0,445.749,29.5q-1.6-.315-3.222-.561c-.334-.051-.67-.1-1.005-.145-.783-.108-1.565-.2-2.355-.292-.356-.04-.714-.079-1.07-.111q-1.487-.141-2.988-.224l-.346-.025q-1.839-.1-3.7-.093-1.965,0-3.909.1h0l-.316.025q-1.607.09-3.2.251c-.377.039-.752.082-1.126.127-.83.094-1.655.2-2.479.326-.354.051-.711.1-1.064.161-1.138.184-2.272.387-3.391.622A74.466,74.466,0,0,0,401.5,34.116a75.174,75.174,0,0,0,1.625,138.8,74.048,74.048,0,0,0,13.244,3.954c1.068.215,2.143.4,3.224.561.334.054.671.1,1.005.145.782.108,1.568.209,2.357.292.354.04.711.079,1.068.116q1.487.139,2.994.223c1.339.073,2.686.114,4.044.114a75.329,75.329,0,0,0,69.733-47.2,74.368,74.368,0,0,0,3.956-13.243,75,75,0,0,0-.162-30.178Zm-61.1-58.6c-.223-.039-.45-.08-.676-.118C443.03,29.024,443.258,29.065,443.48,29.1Zm-2.406-.365c-.563-.076-1.127-.148-1.692-.212Q440.229,28.622,441.074,28.739Zm-3.088-.359c-.946-.088-1.893-.161-2.847-.215C436.092,28.22,437.04,28.289,437.986,28.38ZM426.8,28.175q-1.535.09-3.049.241Q425.265,28.268,426.8,28.175Zm-4.521.408q-.893.1-1.784.232C421.087,28.73,421.683,28.653,422.279,28.583Zm-3.611.51c-.23.036-.458.084-.69.127C418.21,29.177,418.438,29.132,418.668,29.093Zm-.04,148.177c.23.036.456.08.683.121C419.084,177.351,418.858,177.309,418.628,177.27Zm2.414.365c.563.079,1.129.148,1.7.215C422.17,177.784,421.6,177.714,421.042,177.635Zm3.09.36c.946.087,1.9.162,2.855.213C426.027,178.158,425.077,178.085,424.131,178Z" transform="translate(-332.826 -4.955)" fill="#093679"/>
    <path id="Path_159" data-name="Path 159" d="M365.975,104.383a78.632,78.632,0,0,1-4.695-14.871q-.67-3.2-1.076-6.488l-18.727,2.35q.506,4.064,1.331,8.027a97.364,97.364,0,0,0,5.811,18.409c.465,1.087.965,2.156,1.469,3.223l17.073-8.045C366.755,106.126,366.35,105.262,365.975,104.383Z" transform="translate(-340.715 25.079)" fill="#f8f5f6"/>
    <path id="Path_160" data-name="Path 160" d="M469.152,115.127l-15.786-10.351a79.679,79.679,0,0,1-10.254,12.61,80.754,80.754,0,0,1-6.544,5.834l11.789,14.735a97.134,97.134,0,0,0,20.795-22.828Z" transform="translate(-288.765 36.962)" fill="#f8f5f6"/>
    <path id="Path_161" data-name="Path 161" d="M392.465,126.1a79.508,79.508,0,0,1-10.435-5.111l-9.5,16.312a98.039,98.039,0,0,0,12.919,6.321,97.312,97.312,0,0,0,15.879,4.838l3.972-18.468A79.208,79.208,0,0,1,392.465,126.1Z" transform="translate(-323.752 45.819)" fill="#f8f5f6"/>
    <path id="Path_162" data-name="Path 162" d="M452.123,60.206a78.854,78.854,0,0,1,4.693,14.876c.447,2.128.8,4.294,1.076,6.484l18.727-2.347q-.5-4.068-1.333-8.03a97.481,97.481,0,0,0-5.808-18.407c-.465-1.087-.966-2.157-1.471-3.223l-17.073,8.049C451.342,58.466,451.745,59.331,452.123,60.206Z" transform="translate(-280.916 6.796)" fill="#f8f5f6"/>
    <path id="Path_163" data-name="Path 163" d="M428.132,36.892A78.76,78.76,0,0,1,438.569,42l9.505-16.309a97.288,97.288,0,0,0-28.8-11.163L415.3,33A78.672,78.672,0,0,1,428.132,36.892Z" transform="translate(-300.383 -12.342)" fill="#f8f5f6"/>
    <path id="Path_164" data-name="Path 164" d="M536.687,99.128l-18.727,2.347,0,.009c-.272-2.193-.631-4.362-1.078-6.493a78.857,78.857,0,0,0-4.693-14.876c-.379-.878-.782-1.743-1.191-2.606l0,.006,17.073-8.049a98.349,98.349,0,0,0-35.2-40.41q-2.062-1.35-4.2-2.595L479.17,42.772l0,0A78.1,78.1,0,0,0,455.9,33.77L459.876,15.3c-.482-.1-.965-.207-1.45-.3a98.975,98.975,0,0,0-39.459.212,97.742,97.742,0,0,0-34.293,14.433c-2.35,1.57-4.616,3.258-6.816,5.022L389.648,49.4A78.491,78.491,0,0,0,372.739,68l.11-.159L357.063,57.489l-.134.2a98.276,98.276,0,0,0-15.182,65.879l18.727-2.35,0-.017q.408,3.294,1.078,6.505a78.63,78.63,0,0,0,4.695,14.871c.374.878.779,1.743,1.186,2.6l-17.073,8.045a98.312,98.312,0,0,0,35.2,40.408q2.064,1.352,4.2,2.6l9.5-16.312,0,0a78.484,78.484,0,0,0,24.44,9.266c-.394-.077-.779-.175-1.169-.258l-3.972,18.468c.481.1.965.209,1.449.3a99,99,0,0,0,39.457-.21,97.65,97.65,0,0,0,34.294-14.432c2.351-1.573,4.616-3.261,6.818-5.022L488.787,173.3a80.774,80.774,0,0,0,6.544-5.834,79.686,79.686,0,0,0,10.254-12.61L521.371,165.2l.135-.2a98.227,98.227,0,0,0,15.182-65.876ZM509.928,75.341c-.139-.271-.275-.543-.417-.812C509.653,74.8,509.791,75.07,509.928,75.341Zm-2.96-5.318c-.569-.925-1.144-1.84-1.744-2.739C505.824,68.183,506.4,69.1,506.969,70.023Zm1.563,2.694c-.254-.456-.517-.909-.779-1.359C508.015,71.811,508.278,72.261,508.532,72.717ZM395.153,45.339c-.957.643-1.9,1.311-2.824,1.993Q393.716,46.3,395.153,45.339Zm-34.962,73.229.032.366Zm-.3-4.874c.006.193.016.39.023.583C359.911,114.084,359.9,113.887,359.9,113.694Zm.11,2.4c.009.181.023.365.034.547C360.028,116.457,360.014,116.273,360.005,116.092Zm8.5,31.259c.139.274.275.546.419.818C368.782,147.9,368.644,147.625,368.505,147.351Zm2.961,5.318c.564.925,1.141,1.84,1.743,2.74C372.608,154.509,372.029,153.594,371.466,152.669Zm-1.568-2.7q.385.689.786,1.372C370.421,150.888,370.155,150.431,369.9,149.972Zm113.379,27.381c.962-.64,1.9-1.31,2.83-1.993C485.181,176.045,484.239,176.713,483.277,177.353Zm13.7-28.344a69.033,69.033,0,0,1-19.473,19.7,68.8,68.8,0,0,1-75.952.4A69.225,69.225,0,0,1,375.8,138.486a68.268,68.268,0,0,1-4.09-12.919,68.962,68.962,0,0,1-.148-27.71,68.983,68.983,0,0,1,9.9-24.174,69.244,69.244,0,0,1,30.617-25.755,68.807,68.807,0,0,1,64.8,5.66,69.239,69.239,0,0,1,25.758,30.619,68.829,68.829,0,0,1-5.66,64.8Zm21.232-45.236.031.329Zm.184,2.3c.011.172.023.343.034.518C518.417,106.416,518.405,106.244,518.394,106.072Zm.121,2.355c.008.19.017.38.023.571C518.532,108.808,518.523,108.618,518.515,108.427Z" transform="translate(-340.984 -13.114)" fill="#1e4e97"/>
    <path id="Path_165" data-name="Path 165" d="M377.42,47.619a79.787,79.787,0,0,1,6.547-5.837L372.177,27.05a97.1,97.1,0,0,0-20.795,22.825l15.786,10.351A79.751,79.751,0,0,1,377.42,47.619Z" transform="translate(-335.303 -5.501)" fill="#f8f5f6"/>
    <path id="Path_166" data-name="Path 166" d="M488.967,85.976a63.134,63.134,0,0,0-9.329-22.123,63.322,63.322,0,0,0-18.1-17.9,63.184,63.184,0,0,0-69.813.368,63.29,63.29,0,0,0-17.9,18.1,63.2,63.2,0,0,0,.368,69.813A63.7,63.7,0,0,0,403.338,157.9a62.789,62.789,0,0,0,11.178,3.337,63.745,63.745,0,0,0,9.273,1.149,62.684,62.684,0,0,1-21.526-120.19A61.974,61.974,0,0,1,414,38.478a62.792,62.792,0,0,1,70.52,36.668,62.522,62.522,0,0,1,5.061,24.65,62.658,62.658,0,0,1-62.664,62.664,63.3,63.3,0,0,0,13.068-1.362,63.045,63.045,0,0,0,22.126-9.332,63.751,63.751,0,0,0,23.657-29.143,62.717,62.717,0,0,0,3.339-11.178,63.373,63.373,0,0,0-.138-25.468Z" transform="translate(-328.682 -0.813)" fill="#ea7374"/>
    <path id="Path_167" data-name="Path 167" d="M370.494,63.085a69.954,69.954,0,0,0-10.015,24.627,70.147,70.147,0,0,0,.162,28.183,69.966,69.966,0,0,0,54.941,54.362,70.074,70.074,0,0,0,28.183-.162,69.979,69.979,0,0,0,13.153-4.135,69.141,69.141,0,0,0,11.364-6.137,70.138,70.138,0,0,0,19.83-20.043,69.834,69.834,0,0,0,10.016-24.624,70.572,70.572,0,0,0-4.3-41.338,69.555,69.555,0,0,0-6.137-11.364,70.351,70.351,0,0,0-86.006-25.548,69.542,69.542,0,0,0-11.362,6.137,70.137,70.137,0,0,0-19.831,20.042ZM403.92,42.122a64.815,64.815,0,0,1,49.38-.586,64.371,64.371,0,0,1,39.117,46.6,64.5,64.5,0,0,1,.147,25.907,64.544,64.544,0,0,1-63.26,51.89,65.16,65.16,0,0,1-12.612-1.242,64.365,64.365,0,0,1-50.5-49.969,64.759,64.759,0,0,1,3.216-37.289A64.284,64.284,0,0,1,403.92,42.122Z" transform="translate(-331.071 -3.201)" fill="url(#linear-gradient)"/>
    <path id="Path_168" data-name="Path 168" d="M441.4,58.676l4.636-3.1a69.609,69.609,0,0,0-8.6-10.475L433.5,49.048A63.953,63.953,0,0,1,441.4,58.676Z" transform="translate(-290.443 4.364)" fill="#093679"/>
    <path id="Path_169" data-name="Path 169" d="M444.177,65.223l5.128-2.2a69.079,69.079,0,0,0-6.062-11.147l-4.636,3.1A63.14,63.14,0,0,1,444.177,65.223Z" transform="translate(-287.651 8.064)" fill="#e3dedd"/>
    <path id="Path_170" data-name="Path 170" d="M445.968,73.16l5.457-1.149a68.477,68.477,0,0,0-4.089-12.923l-5.128,2.2A62.584,62.584,0,0,1,445.968,73.16Z" transform="translate(-285.683 12.003)" fill="#093679"/>
    <path id="Path_171" data-name="Path 171" d="M433.5,109.231l3.94,3.942a69.6,69.6,0,0,0,9-11.1l-4.67-3.045A63.778,63.778,0,0,1,433.5,109.231Z" transform="translate(-290.443 33.822)" fill="#e3dedd"/>
    <path id="Path_172" data-name="Path 172" d="M369.564,62.126l-5.175-2.072a68.328,68.328,0,0,0-3.632,12.159l5.468,1.09A62.872,62.872,0,0,1,369.564,62.126Z" transform="translate(-330.182 12.53)" fill="#e3dedd"/>
    <path id="Path_173" data-name="Path 173" d="M366.307,85.093l-5.455,1.15a68.265,68.265,0,0,0,4.09,12.919l5.126-2.193A62.964,62.964,0,0,1,366.307,85.093Z" transform="translate(-330.13 26.209)" fill="#093679"/>
    <path id="Path_174" data-name="Path 174" d="M366.695,69.007l-5.468-1.09a69.128,69.128,0,0,0-1.333,13.492h5.579A63.661,63.661,0,0,1,366.695,69.007Z" transform="translate(-330.653 16.826)" fill="#093679"/>
    <path id="Path_175" data-name="Path 175" d="M365.473,76.642h-5.579a69.076,69.076,0,0,0,1.481,14.218l5.455-1.15A63.537,63.537,0,0,1,365.473,76.642Z" transform="translate(-330.653 21.592)" fill="#e3dedd"/>
    <path id="Path_176" data-name="Path 176" d="M368.623,92.774,363.5,94.967a68.977,68.977,0,0,0,6.062,11.15l4.636-3.1A63.513,63.513,0,0,1,368.623,92.774Z" transform="translate(-328.685 30.405)" fill="#e3dedd"/>
    <path id="Path_177" data-name="Path 177" d="M376.918,105.626l-3.94,3.942a69.554,69.554,0,0,0,11.1,9l3.043-4.668A63.9,63.9,0,0,1,376.918,105.626Z" transform="translate(-323.505 37.427)" fill="#e3dedd"/>
    <path id="Path_178" data-name="Path 178" d="M372.053,99.4l-4.636,3.1a69.559,69.559,0,0,0,8.6,10.472l3.94-3.942A63.95,63.95,0,0,1,372.053,99.4Z" transform="translate(-326.543 34.026)" fill="#093679"/>
    <path id="Path_179" data-name="Path 179" d="M383.2,110.976l-3.043,4.668a68.957,68.957,0,0,0,12.013,6.267l2.074-5.177A63.444,63.444,0,0,1,383.2,110.976Z" transform="translate(-319.585 40.349)" fill="#093679"/>
    <path id="Path_180" data-name="Path 180" d="M374.041,55.329l-4.668-3.045A68.856,68.856,0,0,0,363.1,64.3l5.176,2.072A63.12,63.12,0,0,1,374.041,55.329Z" transform="translate(-328.899 8.285)" fill="#093679"/>
    <path id="Path_181" data-name="Path 181" d="M409.534,37.6V32.024a69.16,69.16,0,0,0-14.218,1.48l1.147,5.458A63.339,63.339,0,0,1,409.534,37.6Z" transform="translate(-311.302 -2.783)" fill="#e3dedd"/>
    <path id="Path_182" data-name="Path 182" d="M393.091,40.752,390.9,35.628a68.963,68.963,0,0,0-11.147,6.062l3.1,4.636A63.326,63.326,0,0,1,393.091,40.752Z" transform="translate(-319.806 -0.814)" fill="#e3dedd"/>
    <path id="Path_183" data-name="Path 183" d="M401.029,38.44l-1.147-5.459a68.547,68.547,0,0,0-12.924,4.093l2.194,5.124A63,63,0,0,1,401.029,38.44Z" transform="translate(-315.868 -2.26)" fill="#093679"/>
    <path id="Path_184" data-name="Path 184" d="M380.1,49.048l-3.942-3.942a69.629,69.629,0,0,0-9,11.1l4.668,3.045A64.074,64.074,0,0,1,380.1,49.048Z" transform="translate(-326.685 4.364)" fill="#e3dedd"/>
    <path id="Path_185" data-name="Path 185" d="M386.545,44.184l-3.1-4.636a69.463,69.463,0,0,0-10.473,8.594l3.942,3.942A63.959,63.959,0,0,1,386.545,44.184Z" transform="translate(-323.506 1.327)" fill="#093679"/>
    <path id="Path_186" data-name="Path 186" d="M444.64,68.595A63.415,63.415,0,0,1,446,81.666h5.576a68.954,68.954,0,0,0-1.481-14.22Z" transform="translate(-284.355 16.568)" fill="#e3dedd"/>
    <path id="Path_187" data-name="Path 187" d="M444.729,89.039l5.468,1.09a68.882,68.882,0,0,0,1.333-13.487h-5.576A63.377,63.377,0,0,1,444.729,89.039Z" transform="translate(-284.307 21.592)" fill="#093679"/>
    <path id="Path_188" data-name="Path 188" d="M437.1,52.226l3.942-3.942a69.34,69.34,0,0,0-11.1-9l-3.043,4.67A63.83,63.83,0,0,1,437.1,52.226Z" transform="translate(-294.047 1.185)" fill="#e3dedd"/>
    <path id="Path_189" data-name="Path 189" d="M442.57,95.837l5.176,2.07a68.326,68.326,0,0,0,3.631-12.159l-5.468-1.09A62.72,62.72,0,0,1,442.57,95.837Z" transform="translate(-285.486 25.972)" fill="#e3dedd"/>
    <path id="Path_190" data-name="Path 190" d="M390,114.7l-2.074,5.177a68.223,68.223,0,0,0,12.162,3.629l1.09-5.469A62.789,62.789,0,0,1,390,114.7Z" transform="translate(-315.34 42.384)" fill="#e3dedd"/>
    <path id="Path_191" data-name="Path 191" d="M430.8,46.172l3.043-4.67a68.691,68.691,0,0,0-12.013-6.267l-2.074,5.174A63.042,63.042,0,0,1,430.8,46.172Z" transform="translate(-297.949 -1.029)" fill="#093679"/>
    <path id="Path_192" data-name="Path 192" d="M423.706,41.692l2.074-5.174a68.176,68.176,0,0,0-12.16-3.632l-1.09,5.469A62.917,62.917,0,0,1,423.706,41.692Z" transform="translate(-301.898 -2.312)" fill="#e3dedd"/>
    <path id="Path_193" data-name="Path 193" d="M438.845,102.929l4.67,3.045a68.851,68.851,0,0,0,6.266-12.015L444.6,91.888A63.264,63.264,0,0,1,438.845,102.929Z" transform="translate(-287.521 29.921)" fill="#093679"/>
    <path id="Path_194" data-name="Path 194" d="M404.511,118.132v5.576a68.947,68.947,0,0,0,14.218-1.48l-1.15-5.459A63.3,63.3,0,0,1,404.511,118.132Z" transform="translate(-306.278 43.515)" fill="#e3dedd"/>
    <path id="Path_195" data-name="Path 195" d="M416.909,38.826,418,33.357a69.107,69.107,0,0,0-13.489-1.333V37.6A63.489,63.489,0,0,1,416.909,38.826Z" transform="translate(-306.278 -2.783)" fill="#093679"/>
    <path id="Path_196" data-name="Path 196" d="M396.878,116.858l-1.09,5.469a68.869,68.869,0,0,0,13.489,1.333v-5.576A63.253,63.253,0,0,1,396.878,116.858Z" transform="translate(-311.044 43.563)" fill="#093679"/>
    <path id="Path_197" data-name="Path 197" d="M412.962,118.1l1.15,5.459a68.474,68.474,0,0,0,12.921-4.09l-2.193-5.128A62.61,62.61,0,0,1,412.962,118.1Z" transform="translate(-301.661 42.187)" fill="#093679"/>
    <path id="Path_198" data-name="Path 198" d="M420.644,116.308l2.193,5.128a68.843,68.843,0,0,0,11.149-6.062l-3.094-4.639A63.164,63.164,0,0,1,420.644,116.308Z" transform="translate(-297.465 40.218)" fill="#e3dedd"/>
    <path id="Path_199" data-name="Path 199" d="M427.271,113.526l3.094,4.639a69.66,69.66,0,0,0,10.472-8.6l-3.94-3.942A63.8,63.8,0,0,1,427.271,113.526Z" transform="translate(-293.844 37.427)" fill="#093679"/>
    <path id="Path_200" data-name="Path 200" d="M353.834,84.72c.032.213.057.428.093.637C353.891,85.148,353.866,84.933,353.834,84.72Z" transform="translate(-333.964 26.005)" fill="#093679"/>
    <path id="Path_201" data-name="Path 201" d="M440.8,117.386a79.681,79.681,0,0,0,10.254-12.61A79.681,79.681,0,0,1,440.8,117.386Z" transform="translate(-286.453 36.962)" fill="#093679"/>
    <path id="Path_202" data-name="Path 202" d="M389.529,125.73q3.18.97,6.471,1.667Q392.711,126.694,389.529,125.73Z" transform="translate(-314.463 48.41)" fill="#093679"/>
    <path id="Path_203" data-name="Path 203" d="M387.488,125.064c.854.3,1.721.575,2.59.847C389.209,125.644,388.342,125.362,387.488,125.064Z" transform="translate(-315.578 48.046)" fill="#093679"/>
    <path id="Path_204" data-name="Path 204" d="M455.128,68.148l.046.308Z" transform="translate(-278.625 16.952)" fill="#093679"/>
    <path id="Path_205" data-name="Path 205" d="M366.393,44.257A79.023,79.023,0,0,0,361.6,50.8,79.737,79.737,0,0,1,366.393,44.257Z" transform="translate(-329.72 3.9)" fill="#f8f7f7"/>
    <path id="Path_206" data-name="Path 206" d="M367.266,42.263c-.833.923-1.641,1.873-2.429,2.836C365.626,44.136,366.433,43.186,367.266,42.263Z" transform="translate(-327.953 2.811)" fill="#f8f7f7"/>
    <path id="Path_207" data-name="Path 207" d="M351.383,113.654c-.5-1.051-.991-2.1-1.45-3.175a96.086,96.086,0,0,1-5.724-18.141c-.546-2.6-.98-5.24-1.313-7.909l-1.418.178q.506,4.064,1.331,8.027a97.364,97.364,0,0,0,5.811,18.409c.465,1.087.965,2.156,1.469,3.223Z" transform="translate(-340.715 25.846)" fill="url(#linear-gradient-2)"/>
    <path id="Path_208" data-name="Path 208" d="M451.6,126.339a97.651,97.651,0,0,1-7.982,7.119l.892,1.116A97.135,97.135,0,0,0,465.3,111.746l-1.2-.782A97.3,97.3,0,0,1,451.6,126.339Z" transform="translate(-284.915 40.343)" fill="url(#linear-gradient-3)"/>
    <path id="Path_209" data-name="Path 209" d="M385.978,136.967a96.061,96.061,0,0,1-12.731-6.232l-.721,1.239a98.039,98.039,0,0,0,12.919,6.321,97.314,97.314,0,0,0,15.879,4.838l.3-1.4A96.03,96.03,0,0,1,385.978,136.967Z" transform="translate(-323.752 51.144)" fill="url(#linear-gradient-4)"/>
    <path id="Path_210" data-name="Path 210" d="M462.589,53.342a96.265,96.265,0,0,1,5.724,18.141q.817,3.9,1.313,7.909l1.418-.175q-.5-4.068-1.333-8.03A97.478,97.478,0,0,0,463.9,52.781c-.465-1.087-.966-2.157-1.471-3.223l-1.293.609C461.635,51.219,462.13,52.273,462.589,53.342Z" transform="translate(-275.341 6.796)" fill="url(#linear-gradient-5)"/>
    <path id="Path_211" data-name="Path 211" d="M433.324,20.7a96.248,96.248,0,0,1,12.731,6.23l.722-1.236a97.287,97.287,0,0,0-28.8-11.163l-.3,1.4A96.166,96.166,0,0,1,433.324,20.7Z" transform="translate(-299.085 -12.342)" fill="url(#linear-gradient-6)"/>
    <path id="Path_212" data-name="Path 212" d="M343.164,107.712a97.319,97.319,0,0,1,1.106-30.973,96.19,96.19,0,0,1,13.855-33.946l.131-.2-1.194-.786-.134.2a98.276,98.276,0,0,0-15.182,65.879Z" transform="translate(-340.984 2.564)" fill="url(#linear-gradient-7)"/>
    <path id="Path_213" data-name="Path 213" d="M387.168,145.707q-2.106-1.227-4.139-2.555a96.646,96.646,0,0,1-34.689-39.824l-1.294.611a98.312,98.312,0,0,0,35.2,40.408q2.064,1.352,4.2,2.6Z" transform="translate(-337.672 36.172)" fill="url(#linear-gradient-8)"/>
    <path id="Path_214" data-name="Path 214" d="M472.277,125.511c-2.173,1.737-4.4,3.4-6.72,4.95a96.318,96.318,0,0,1-33.795,14.221,97.467,97.467,0,0,1-38.882.206c-.478-.094-.953-.2-1.429-.3l-.3,1.4c.481.1.965.209,1.449.3a99,99,0,0,0,39.457-.21,97.652,97.652,0,0,0,34.294-14.432c2.35-1.573,4.616-3.261,6.818-5.022Z" transform="translate(-313.577 48.29)" fill="url(#linear-gradient-9)"/>
    <path id="Path_215" data-name="Path 215" d="M473.379,68.739l-1.418.175v0a97.339,97.339,0,0,1-1.1,30.968A96.219,96.219,0,0,1,457,133.836l-.133.2,1.2.782.134-.2a98.227,98.227,0,0,0,15.182-65.876Z" transform="translate(-277.675 17.275)" fill="url(#linear-gradient-10)"/>
    <path id="Path_216" data-name="Path 216" d="M436.029,22.983q2.1,1.227,4.141,2.555a96.687,96.687,0,0,1,34.689,39.824l1.293-.609a98.349,98.349,0,0,0-35.2-40.41q-2.062-1.35-4.2-2.595Z" transform="translate(-289.059 -8.398)" fill="url(#linear-gradient-11)"/>
    <path id="Path_217" data-name="Path 217" d="M365.724,35.778c2.168-1.737,4.4-3.4,6.717-4.948A96.97,96.97,0,0,1,445.119,16.4c.478.094.953.2,1.429.3l.3-1.4c-.482-.1-.965-.207-1.45-.3a98.975,98.975,0,0,0-39.459.212,97.743,97.743,0,0,0-34.293,14.433c-2.35,1.57-4.616,3.258-6.816,5.022Z" transform="translate(-327.957 -13.114)" fill="url(#linear-gradient-12)"/>
    <path id="Path_218" data-name="Path 218" d="M365.085,35.283a96.64,96.64,0,0,1,7.985-7.118l-.894-1.115a97.1,97.1,0,0,0-20.795,22.825l1.194.786A97.338,97.338,0,0,1,365.085,35.283Z" transform="translate(-335.303 -5.501)" fill="url(#linear-gradient-13)"/>
    <path id="Path_219" data-name="Path 219" d="M415.421,131.595a4,4,0,1,1,4,4A4,4,0,0,1,415.421,131.595Z" transform="translate(-300.318 49.428)" fill="#f8f7f7"/>
    <path id="Path_220" data-name="Path 220" d="M389.16,24.516a4,4,0,1,1,4,4A4.005,4.005,0,0,1,389.16,24.516Z" transform="translate(-314.665 -9.073)" fill="#f8f7f7"/>
    <path id="Path_221" data-name="Path 221" d="M347.734,68.345a4,4,0,1,1,4,4A4,4,0,0,1,347.734,68.345Z" transform="translate(-337.296 14.873)" fill="#f8f7f7"/>
    <path id="Path_222" data-name="Path 222" d="M362.16,116.246a4,4,0,1,1,4,4A4,4,0,0,1,362.16,116.246Z" transform="translate(-329.415 41.041)" fill="#f8f7f7"/>
    <path id="Path_223" data-name="Path 223" d="M455.37,90.725a4,4,0,1,1,4,4A4,4,0,0,1,455.37,90.725Z" transform="translate(-278.493 27.098)" fill="#f8f7f7"/>
    <path id="Path_224" data-name="Path 224" d="M442.609,41.346a4,4,0,1,1,4,4A4,4,0,0,1,442.609,41.346Z" transform="translate(-285.465 0.122)" fill="#f8f7f7"/>
    <path id="Path_225" data-name="Path 225" d="M480.024,133.671a62.849,62.849,0,0,0,5.741-11.056,63.594,63.594,0,0,0-6.117-58.788q-.768-1.141-1.591-2.259c-.167-.229-.34-.456-.513-.685-.4-.532-.81-1.058-1.231-1.58-.189-.235-.377-.473-.571-.707-.537-.646-1.084-1.287-1.648-1.914l-.192-.224q-1.044-1.15-2.157-2.264-1.174-1.174-2.4-2.272l0,0,0,0,0,0-.2-.172q-1.014-.907-2.06-1.758-.371-.3-.747-.6c-.551-.441-1.11-.866-1.673-1.287-.243-.178-.484-.362-.73-.538-.79-.567-1.588-1.123-2.4-1.651A62.984,62.984,0,0,0,439.3,36.871a63.719,63.719,0,0,0-37.336,3.88A63.025,63.025,0,0,0,391.7,46.292,63.349,63.349,0,0,0,373.784,64.4a63.18,63.18,0,0,0-9.046,22.244,63.434,63.434,0,0,0,.145,25.457,63.337,63.337,0,0,0,9.279,22.143c.509.764,1.044,1.514,1.59,2.259.167.23.342.456.513.687q.6.8,1.231,1.582c.189.235.376.472.569.7.538.649,1.087,1.29,1.653,1.921.758.843,1.536,1.673,2.343,2.483a63.583,63.583,0,0,0,69.787,13.442,62.656,62.656,0,0,0,10.263-5.542,63.349,63.349,0,0,0,17.913-18.106Zm-1.5-71.432c-.111-.158-.221-.317-.332-.475C478.308,61.922,478.417,62.082,478.529,62.239Zm-1.217-1.656c-.292-.38-.586-.761-.885-1.135C476.726,59.823,477.02,60.2,477.312,60.583Zm-1.631-2.057c-.51-.615-1.033-1.226-1.57-1.826Q474.916,57.6,475.68,58.527Zm-6.552-6.8q-.967-.861-1.965-1.676Q468.161,50.867,469.129,51.729Zm-2.941-2.456q-.6-.471-1.2-.925Q465.591,48.8,466.188,49.274Zm-2.457-1.851c-.162-.114-.326-.221-.489-.336C463.4,47.2,463.568,47.308,463.73,47.423Zm-88.455,88.406c.116.156.224.32.339.479C375.5,136.149,375.391,135.988,375.275,135.829Zm1.222,1.658c.292.38.586.764.888,1.138Q376.934,138.058,376.5,137.486Zm1.63,2.06c.513.615,1.036,1.226,1.577,1.831Q378.894,140.47,378.126,139.546Z" transform="translate(-328.672 -0.803)" fill="url(#linear-gradient-14)"/>
    <path id="Path_226" data-name="Path 226" d="M487.16,85.776a61.733,61.733,0,0,0-9.129-21.652,62.006,62.006,0,0,0-17.718-17.514,62.117,62.117,0,0,0-21.744-8.9c-.878-.175-1.767-.326-2.661-.462-.277-.045-.552-.08-.83-.121-.646-.09-1.293-.172-1.945-.241-.294-.032-.589-.066-.884-.094-.816-.074-1.641-.138-2.468-.184l-.284-.02q-1.522-.074-3.059-.076-1.624,0-3.229.085h0l-.261.017c-.886.051-1.764.124-2.641.209-.311.032-.618.07-.929.105-.687.079-1.368.167-2.047.269-.294.043-.586.085-.88.133-.939.152-1.876.32-2.8.513A61.693,61.693,0,0,0,392,46.973a61.973,61.973,0,0,0-17.514,17.716A62.079,62.079,0,0,0,414.3,159.423c.881.175,1.769.326,2.663.465.275.042.554.079.83.118q.967.137,1.947.241c.294.034.586.066.881.094.821.079,1.644.142,2.473.184,1.106.06,2.22.1,3.34.1a61.818,61.818,0,0,0,34.44-10.462,62.024,62.024,0,0,0,17.514-17.716,61.871,61.871,0,0,0,8.771-46.668ZM436.7,37.381c-.186-.029-.371-.066-.558-.1C436.325,37.315,436.51,37.352,436.7,37.381Zm-1.987-.3c-.465-.063-.931-.121-1.4-.175C433.778,36.959,434.244,37.016,434.709,37.08Zm-2.553-.3q-1.167-.107-2.349-.178C430.594,36.651,431.378,36.708,432.156,36.783Zm-12.969.167c-.495.057-.985.124-1.475.193C418.2,37.073,418.692,37.007,419.187,36.95Zm-2.983.419c-.193.034-.38.073-.571.107C415.824,37.441,416.014,37.4,416.2,37.369Zm-.034,122.38c.189.029.376.066.566.1Zm1.992.3c.465.063.934.124,1.4.176C419.1,160.171,418.627,160.114,418.162,160.05Zm2.553.3c.781.073,1.568.133,2.357.175C422.283,160.48,421.5,160.423,420.715,160.35Z" transform="translate(-328.204 -0.333)" fill="#1e4e97"/>
  </g>
</svg>
