<?xml version="1.0" encoding="UTF-8" standalone="no"?>
<svg
   xmlns:dc="http://purl.org/dc/elements/1.1/"
   xmlns:cc="http://creativecommons.org/ns#"
   xmlns:rdf="http://www.w3.org/1999/02/22-rdf-syntax-ns#"
   xmlns:svg="http://www.w3.org/2000/svg"
   xmlns="http://www.w3.org/2000/svg"
   xmlns:sodipodi="http://sodipodi.sourceforge.net/DTD/sodipodi-0.dtd"
   xmlns:inkscape="http://www.inkscape.org/namespaces/inkscape"
   sodipodi:docname="logo_blanc.svg"
   inkscape:version="1.0 (4035a4fb49, 2020-05-01)"
   id="svg8"
   version="1.1"
   viewBox="0 0 129.99884 129.99925"
   height="5.1180806in"
   width="5.1180644in">
  <defs
     id="defs2" />
  <sodipodi:namedview
     fit-margin-bottom="0"
     fit-margin-right="0"
     fit-margin-left="0"
     fit-margin-top="0"
     units="in"
     inkscape:window-maximized="1"
     inkscape:window-y="799"
     inkscape:window-x="8629"
     inkscape:window-height="1541"
     inkscape:window-width="2880"
     inkscape:snap-global="true"
     showgrid="false"
     inkscape:document-rotation="0"
     inkscape:current-layer="g911"
     inkscape:document-units="mm"
     inkscape:cy="28.808752"
     inkscape:cx="-28.521675"
     inkscape:zoom="0.86026489"
     inkscape:pageshadow="2"
     inkscape:pageopacity="0.0"
     borderopacity="1.0"
     bordercolor="#666666"
     pagecolor="#ffffff"
     id="base" />
  <metadata
     id="metadata5">
    <rdf:RDF>
      <cc:Work
         rdf:about="">
        <dc:format>image/svg+xml</dc:format>
        <dc:type
           rdf:resource="http://purl.org/dc/dcmitype/StillImage" />
        <dc:title></dc:title>
      </cc:Work>
    </rdf:RDF>
  </metadata>
  <g
     transform="translate(-2.9181418,-2.1968342)"
     inkscape:label="Noir"
     inkscape:groupmode="layer"
     id="g37"
     style="display:inline" />
  <g
     transform="translate(-2.9181418,-2.1968342)"
     style="display:inline"
     inkscape:label="arc 1"
     id="layer3"
     inkscape:groupmode="layer" />
  <g
     transform="translate(-2.9181418,-2.1968342)"
     inkscape:groupmode="layer"
     id="g903"
     inkscape:label="arc 2"
     style="display:inline" />
  <g
     transform="translate(-2.9181418,-2.1968342)"
     style="display:inline"
     inkscape:label="arc 3"
     id="g907"
     inkscape:groupmode="layer" />
  <g
     transform="translate(-2.9181418,-2.1968342)"
     inkscape:groupmode="layer"
     id="g911"
     inkscape:label="arc 4"
     style="display:inline">
    <g
       transform="translate(12.917533,11.379731)"
       id="g844">
      <path
         d="M 55.108263,0.18708867 A 55,55 0 0 0 16.109094,16.296183 a 55,55 0 0 0 0,77.781814 55,55 0 0 0 77.781814,0 55,55 0 0 0 0,-77.781814 A 55,55 0 0 0 55.108263,0.18708867 Z M 55.538211,15.385644 c 1.274751,1.74347 7.244061,14.021821 22.619292,27.470674 23.509477,24.488404 1.179891,45.712858 -20.007048,33.542139 3.060179,13.88827 6.08049,14.951575 8.956558,18.666044 H 44.701147 c 2.378811,-3.678412 4.533958,-4.77734 8.452197,-18.74511 C 32.401695,89.121232 6.6728972,69.670852 32.919437,42.856318 47.109147,29.656975 54.315071,16.838274 55.538211,15.385644 Z"
         style="display:inline;opacity:0.993;fill:#fffffb;fill-opacity:1;fill-rule:evenodd;stroke-width:0.145521"
         id="circle35" />
      <path
         d="M 100.96179,9.8547154 72.877721,37.938788 c 1.622457,1.609482 3.3786,3.25455 5.279782,4.91753 4.312883,4.492471 7.077834,8.873686 8.595341,12.96045 H 119.99784 C 119.99702,38.803473 113.31132,22.204243 100.96179,9.8547154 Z m 19.03605,45.9620526 c 2e-5,0.315397 -0.006,0.631055 -0.0103,0.946711 0.005,-0.315555 0.0119,-0.630483 0.0119,-0.946711 z m -0.0103,0.946711 c -0.003,0.212379 -0.003,0.425112 -0.008,0.63717 0.005,-0.212527 0.005,-0.424741 0.008,-0.63717 z m -0.008,0.63717 c -0.0134,0.551643 -0.0329,1.103582 -0.0605,1.655715 0.0274,-0.550596 0.0471,-1.102778 0.0605,-1.655715 z m -0.0641,1.719791 c -0.0174,0.342001 -0.0373,0.6832 -0.06,1.024229 0.0228,-0.341471 0.0426,-0.682868 0.06,-1.024229 z m -0.0615,1.041797 c -0.0225,0.336452 -0.0472,0.672251 -0.0749,1.007692 0.0278,-0.33597 0.0524,-0.67175 0.0749,-1.007692 z m -0.0961,1.248503 c -0.0236,0.27419 -0.049,0.548177 -0.076,0.821655 0.0272,-0.273909 0.0524,-0.547724 0.076,-0.821655 z m -0.10852,1.133266 c -0.0246,0.237019 -0.0493,0.47408 -0.0765,0.710549 0.0273,-0.236789 0.0518,-0.473721 0.0765,-0.710549 z m -0.13384,1.182357 c -0.0241,0.196979 -0.048,0.393565 -0.0739,0.590145 0.026,-0.19685 0.0497,-0.393245 0.0739,-0.590145 z m -0.14004,1.068668 c -0.0262,0.188129 -0.0517,0.376565 -0.0796,0.564306 0.0279,-0.18799 0.0533,-0.376246 0.0796,-0.564306 z m -0.17312,1.166854 c -0.0226,0.142629 -0.0448,0.285441 -0.0682,0.427879 0.0235,-0.1426 0.0457,-0.285239 0.0682,-0.427879 z m -0.20309,1.210263 c -0.0138,0.0778 -0.0272,0.155329 -0.0413,0.233058 0.0141,-0.0778 0.0275,-0.155189 0.0413,-0.233058 z m -0.19172,1.030427 c -0.018,0.0925 -0.0349,0.185608 -0.0532,0.278019 0.0184,-0.0925 0.0353,-0.18547 0.0532,-0.278019 z m -0.23254,1.144114 c -0.0113,0.0533 -0.0222,0.106918 -0.0336,0.160198 0.0114,-0.0533 0.0223,-0.106847 0.0336,-0.160198 z m -2.2903,8.125087 c -0.0411,0.116171 -0.0807,0.232897 -0.12247,0.348816 0.0417,-0.115919 0.0815,-0.232576 0.12247,-0.348816 z m -1.26556,3.29954 c -0.23591,0.567226 -0.48005,1.130958 -0.73174,1.690854 0.25143,-0.559406 0.49572,-1.122974 0.73174,-1.690854 z m -1.51153,3.362068 c -0.26754,0.552712 -0.54282,1.101177 -0.82579,1.645896 0.28274,-0.544158 0.55799,-1.092729 0.82579,-1.645896 z M 112.682,85.77928 c -0.28298,0.544716 -0.57355,1.085723 -0.87178,1.622123 0.29798,-0.535911 0.5885,-1.076941 0.87178,-1.622123 z m -3.04168,5.242573 c -0.15457,0.23985 -0.31151,0.478356 -0.46922,0.716235 0.15778,-0.237829 0.31451,-0.476176 0.46922,-0.716235 z m -0.59117,0.900721 c -0.16479,0.246669 -0.33156,0.491919 -0.49972,0.736389 0.16807,-0.24415 0.33493,-0.489779 0.49972,-0.736389 z m -0.58188,0.856277 c -0.1411,0.204171 -0.2849,0.407233 -0.4284,0.609782 0.14351,-0.20261 0.28712,-0.405492 0.4284,-0.609782 z m -0.63665,0.904337 c -0.10995,0.153371 -0.22159,0.305345 -0.3328,0.457854 0.11125,-0.152411 0.22281,-0.304443 0.3328,-0.457854 z m -0.62581,0.858346 c -0.11367,0.153281 -0.22908,0.305056 -0.34416,0.457337 0.11506,-0.152249 0.23045,-0.304016 0.34416,-0.457337 z m -0.63148,0.836125 c -0.11119,0.144989 -0.22399,0.288939 -0.33642,0.433049 0.11254,-0.144071 0.22513,-0.287948 0.33642,-0.433049 z m -0.65733,0.84336 c -0.0949,0.119599 -0.19105,0.238143 -0.2868,0.357084 0.0957,-0.11888 0.1919,-0.237564 0.2868,-0.357084 z m -0.67541,0.836641 c -0.0634,0.0775 -0.12838,0.153845 -0.19223,0.230995 0.0641,-0.0769 0.12866,-0.153564 0.19223,-0.230995 z"
         style="display:inline;opacity:0.993;fill:#ec4200;fill-opacity:1;fill-rule:evenodd;stroke-width:0.132291"
         id="path875" />
      <path
         d="M 54.843679,-9.1828818 C 37.885113,-9.141194 21.349871,-2.4569457 9.0382078,9.8547154 L 37.526907,38.343415 C 47.466554,28.113838 53.118157,18.93517 54.999744,16.142187 V -9.1813316 c -0.05199,2.9e-6 -0.104079,-0.00167 -0.156065,-0.00156 z m 0.156065,0.00156 c 0.315052,-1.78e-5 0.630364,0.00576 0.945679,0.010335 -0.315114,-0.00456 -0.629899,-0.011885 -0.945679,-0.011885 z m 0.945679,0.010335 c 0.212656,0.00308 0.425868,0.00259 0.638204,0.00775 -0.212876,-0.00518 -0.425432,-0.00466 -0.638204,-0.00775 z m 0.638204,0.00775 c 0.551812,0.013435 1.103926,0.033408 1.656228,0.060978 -0.550762,-0.027397 -1.103125,-0.047573 -1.656228,-0.060978 z m 1.719792,0.064079 c 0.341997,0.017399 0.683712,0.037235 1.024741,0.059945 -0.341468,-0.022799 -0.683392,-0.042635 -1.024741,-0.059945 z m 1.042312,0.061495 c 0.336439,0.0225 0.67224,0.047231 1.00769,0.074931 -0.335971,-0.0278 -0.671761,-0.052431 -1.00769,-0.074931 z m 1.248503,0.096118 c 0.274198,0.023601 0.548185,0.048954 0.821656,0.075964 -0.27391,-0.0272 -0.547728,-0.052364 -0.821656,-0.075964 z m 1.133263,0.1085204 c 0.237011,0.024601 0.474081,0.049281 0.710552,0.076481 -0.236799,-0.02729 -0.473721,-0.051781 -0.710552,-0.076481 z m 1.181841,0.1338419 c 0.19699,0.024101 0.394081,0.047997 0.590661,0.073897 -0.19685,-0.026001 -0.393753,-0.049697 -0.590661,-0.073897 z m 1.069184,0.1400431 c 0.188132,0.026199 0.376558,0.051682 0.564309,0.079582 -0.187992,-0.0279 -0.376248,-0.053282 -0.564309,-0.079582 z m 1.166855,0.1731161 c 0.142639,0.02258 0.28543,0.044813 0.427881,0.068213 -0.142592,-0.023511 -0.285252,-0.045713 -0.427881,-0.068213 z m 1.210262,0.2030884 c 0.0778,0.013769 0.155321,0.027241 0.233061,0.041341 -0.0778,-0.01406 -0.155202,-0.027541 -0.233061,-0.041341 z m 1.030428,0.1917197 c 0.0925,0.017989 0.18561,0.034927 0.278019,0.053227 -0.0925,-0.018399 -0.18546,-0.035337 -0.278019,-0.053227 z m 1.144116,0.2325439 c 0.0533,0.0113 0.106926,0.02218 0.160198,0.03359 -0.0533,-0.011419 -0.106868,-0.02227 -0.160198,-0.03359 z m 8.125085,2.2902994 c 0.116181,0.04109 0.232907,0.080748 0.348816,0.1224732 -0.11593,-0.04169 -0.232585,-0.081448 -0.348816,-0.1224732 z m 3.299542,1.2655558 c 0.567224,0.2359141 1.130958,0.4800547 1.690851,0.7317383 -0.559403,-0.2514243 -1.122974,-0.4957141 -1.690851,-0.7317383 z m 3.362068,1.5115357 c 0.552712,0.2675374 1.101175,0.5428145 1.645893,0.8257893 -0.544155,-0.2827427 -1.092729,-0.5579955 -1.645893,-0.8257893 z m 1.645893,0.8257893 c 0.544719,0.2829749 1.085723,0.5735492 1.622124,0.87178143 C 86.048986,-1.2916903 85.507953,-1.5822123 84.962771,-1.8654881 Z m 5.242574,3.0416748 c 0.23985,0.154572 0.478356,0.311513 0.716235,0.469222 -0.237819,-0.157784 -0.476174,-0.314511 -0.716235,-0.469222 z m 0.900721,0.5911783 c 0.246671,0.1647891 0.491918,0.3315512 0.736388,0.4997111 -0.24415,-0.1680679 -0.489768,-0.334924 -0.736388,-0.4997111 z m 0.856279,0.5818767 c 0.204168,0.141097 0.407222,0.2849006 0.609782,0.4283976 -0.20262,-0.143503 -0.405482,-0.2871226 -0.609782,-0.4283976 z m 0.904337,0.6366536 c 0.153369,0.1099521 0.305343,0.2215833 0.457854,0.3327964 C 93.172125,3.2074386 93.02009,3.0958874 92.866682,2.9858953 Z m 0.858346,0.6258015 c 0.15327,0.1136772 0.305056,0.2295988 0.457335,0.344682 -0.152249,-0.1150581 -0.304025,-0.2309659 -0.457335,-0.344682 z m 0.836123,0.6314861 C 94.706142,4.354373 94.850092,4.4671654 94.9942,4.5795963 94.850131,4.4670595 94.706251,4.354478 94.561151,4.2431829 Z m 0.843359,0.6573242 c 0.119621,0.09487 0.238146,0.1910553 0.357084,0.2868043 C 95.642707,5.0916214 95.52403,4.9954181 95.40451,4.9005071 Z m 0.836642,0.6754111 c 0.0775,0.06338 0.153844,0.1283832 0.230994,0.1922362 -0.0769,-0.06414 -0.153564,-0.1286663 -0.230994,-0.1922362 z"
         style="display:inline;opacity:0.993;fill:#ec4200;fill-opacity:1;fill-rule:evenodd;stroke-width:0.132291"
         id="path901" />
      <path
         d="m 58.150455,76.398457 c 3.060179,13.88827 6.08049,14.951575 8.956558,18.666044 H 55.00026 v 25.749849 c 17.013121,-0.001 33.612134,-6.68665 45.96153,-19.03605 L 77.804035,78.620544 c -5.551466,2.17207 -12.664093,1.792986 -19.65358,-2.222087 z M 55.00026,120.81435 c -0.260821,10e-6 -0.521896,-0.005 -0.782897,-0.008 0.260969,0.003 0.52147,0.01 0.782897,0.01 z m -0.782897,-0.008 c -0.274063,-0.003 -0.548643,-0.004 -0.822174,-0.0103 0.27424,0.007 0.5481,0.007 0.822174,0.0103 z m -0.822174,-0.0103 c -0.544759,-0.0134 -1.089808,-0.0327 -1.635041,-0.06 0.54374,0.0271 1.089015,0.0465 1.635041,0.06 z M 13.527856,105.86487 c 0.0769,0.0641 0.153564,0.12867 0.230994,0.19224 -0.0775,-0.0634 -0.153844,-0.12839 -0.230994,-0.19224 z m 0.710551,0.58085 c 0.11889,0.0957 0.237564,0.19189 0.357084,0.2868 -0.11962,-0.0949 -0.238144,-0.19105 -0.357084,-0.2868 z m 0.767395,0.60771 c 0.14407,0.11254 0.287949,0.22564 0.433049,0.33693 -0.14499,-0.11119 -0.288939,-0.2245 -0.433049,-0.33693 z m 0.811837,0.62374 c 0.15225,0.11506 0.304026,0.23044 0.457336,0.34416 -0.15327,-0.11368 -0.305056,-0.22908 -0.457336,-0.34416 z m 0.857829,0.63717 c 0.15241,0.11125 0.304443,0.2228 0.457853,0.33279 -0.15337,-0.10995 -0.305343,-0.22158 -0.457853,-0.33279 z m 0.752409,0.54105 c 0.202619,0.14351 0.405482,0.28713 0.609781,0.4284 -0.20417,-0.1411 -0.407221,-0.2849 -0.609781,-0.4284 z m 0.729671,0.51056 c 0.24415,0.16807 0.489769,0.33493 0.736389,0.49971 -0.24667,-0.16479 -0.491919,-0.33155 -0.736389,-0.49971 z m 0.920874,0.62167 c 0.23782,0.15779 0.476175,0.31451 0.716235,0.46922 -0.23985,-0.15457 -0.478355,-0.31151 -0.716235,-0.46922 z m 4.336686,2.63912 c 0.535909,0.29798 1.076941,0.5885 1.622123,0.87178 -0.544718,-0.28298 -1.085723,-0.57355 -1.622123,-0.87178 z m 1.622123,0.87178 c 0.544156,0.28274 1.09273,0.55799 1.645895,0.82579 -0.552712,-0.26754 -1.101177,-0.54282 -1.645895,-0.82579 z m 1.645895,0.82579 c 1.103349,0.53414 2.224243,1.03862 3.362068,1.51153 -1.135454,-0.47224 -2.256644,-0.97646 -3.362068,-1.51153 z m 6.312791,2.65462 c 0.115933,0.0417 0.232587,0.0814 0.348816,0.12247 -0.116178,-0.0411 -0.232904,-0.0807 -0.348816,-0.12247 z m 8.313706,2.37918 c 0.0533,0.0114 0.106868,0.0223 0.160197,0.0336 -0.0533,-0.0113 -0.106929,-0.0222 -0.160197,-0.0336 z m 1.026295,0.2129 c 0.0925,0.0184 0.185457,0.0353 0.278019,0.0532 -0.0925,-0.018 -0.185611,-0.0349 -0.278019,-0.0532 z m 1.075385,0.20413 c 0.0778,0.0141 0.1552,0.027 0.233061,0.0408 -0.0778,-0.0138 -0.155321,-0.0267 -0.233061,-0.0408 z m 1.015442,0.1757 c 0.142589,0.0235 0.28525,0.0457 0.427882,0.0682 -0.14264,-0.0226 -0.285433,-0.0448 -0.427882,-0.0682 z m 1.030428,0.16174 c 0.187989,0.0279 0.376248,0.0533 0.564306,0.0796 -0.188129,-0.0262 -0.376555,-0.0517 -0.564306,-0.0796 z m 1.042831,0.14573 c 0.19685,0.026 0.393235,0.0497 0.590145,0.0739 -0.19699,-0.0241 -0.393565,-0.048 -0.590145,-0.0739 z m 1.06195,0.13126 c 0.2368,0.0273 0.473721,0.0518 0.710552,0.0765 -0.237011,-0.0246 -0.474083,-0.0493 -0.710552,-0.0765 z m 1.02216,0.10904 c 0.27391,0.0272 0.547725,0.0524 0.821656,0.076 -0.274201,-0.0236 -0.548185,-0.049 -0.821656,-0.076 z m 1.062466,0.0971 c 0.335971,0.0278 0.671761,0.0524 1.007692,0.0749 -0.336441,-0.0225 -0.67224,-0.0472 -1.007692,-0.0749 z m 1.02526,0.0765 c 0.341472,0.0228 0.683395,0.0426 1.024745,0.06 -0.342,-0.0174 -0.683712,-0.0373 -1.024745,-0.06 z"
         style="display:inline;opacity:0.993;fill:#ec4200;fill-opacity:1;fill-rule:evenodd;stroke-width:0.132291"
         id="path905" />
      <path
         d="m 4.9516357,14.344364 c -0.06414,0.0769 -0.1286663,0.153564 -0.1922364,0.230993 0.06338,-0.0775 0.1283835,-0.153843 0.1922364,-0.230993 z m -0.5808432,0.710551 c -0.09569,0.11889 -0.191893,0.237564 -0.2868041,0.357084 0.09487,-0.11962 0.1910551,-0.238144 0.2868041,-0.357084 z M 3.7630777,15.82231 C 3.6505409,15.96638 3.5379591,16.110258 3.4266642,16.255358 3.5378543,16.110368 3.6506467,15.96642 3.7630777,15.82231 Z M 3.1393431,16.634146 C 3.0242851,16.786396 2.9088942,16.93869 2.7951782,17.092 2.9088551,16.93873 3.0242602,16.786427 3.1393431,16.634146 Z m -0.6371703,0.858346 c -0.111253,0.15241 -0.2228042,0.304443 -0.3327962,0.457853 0.109952,-0.15337 0.2215832,-0.305343 0.3327962,-0.457853 z m -0.5410522,0.751892 c -0.143503,0.20262 -0.2871226,0.405482 -0.4283976,0.609782 0.141097,-0.20417 0.2849006,-0.407222 0.4283976,-0.609782 z m -0.5105632,0.730188 c -0.168068,0.24415 -0.3349241,0.489252 -0.49971106,0.735872 0.16478896,-0.24667 0.33155106,-0.491402 0.49971106,-0.735872 z m -0.62166744,0.920357 c -0.157784,0.23782 -0.31451099,0.476176 -0.469222,0.716236 0.15457199,-0.23985 0.31151301,-0.478356 0.469222,-0.716236 z m -2.63911536,4.336687 c -0.2979836,0.535909 -0.5885056,1.076941 -0.8717815,1.622123 0.2829749,-0.544718 0.5735492,-1.085723 0.8717815,-1.622123 z m -0.8717815,1.622123 c -0.2827427,0.544156 -0.5579954,1.092728 -0.8257891,1.645895 0.2675374,-0.552712 0.5428143,-1.101177 0.8257891,-1.645895 z m -1.6055866,3.317109 c -0.2514245,0.559406 -0.4957141,1.122974 -0.7317383,1.690855 0.2359139,-0.567227 0.4800545,-1.130959 0.7317383,-1.690855 z m -1.8748211,4.641578 c -0.04169,0.11593 -0.081448,0.232587 -0.1224729,0.348816 0.04109,-0.116181 0.080748,-0.232905 0.1224729,-0.348816 z m -2.3791828,8.313705 c -0.011419,0.0533 -0.02227,0.106866 -0.03359,0.160195 0.0113,-0.0533 0.02218,-0.106926 0.03359,-0.160195 z m -0.212907,1.026293 c -0.018399,0.0925 -0.035337,0.185459 -0.053226,0.278019 0.017989,-0.0925 0.034927,-0.185608 0.053226,-0.278019 z m -0.2036051,1.075385 c -0.01406,0.0778 -0.027541,0.155718 -0.041341,0.23358 0.013769,-0.0778 0.027241,-0.155837 0.041341,-0.23358 z m -0.1762167,1.015445 c -0.023511,0.142589 -0.045713,0.28525 -0.068213,0.427879 0.02258,-0.14264 0.044813,-0.28543 0.068213,-0.427879 z m -0.1617472,1.030428 c -0.0279,0.187989 -0.053282,0.376245 -0.079582,0.564305 0.026199,-0.188129 0.051682,-0.376557 0.079582,-0.564305 z m -0.1457275,1.042828 c -0.026001,0.19685 -0.049697,0.393753 -0.073897,0.590664 0.024101,-0.19699 0.047997,-0.394084 0.073897,-0.590664 z m -0.1312582,1.06195 c -0.02729,0.236803 -0.051781,0.473724 -0.076481,0.710552 0.024601,-0.237008 0.049281,-0.47408 0.076481,-0.710552 z m -0.1090371,1.022163 c -0.0272,0.273909 -0.052364,0.54824 -0.075964,0.822171 0.023601,-0.274201 0.048954,-0.548703 0.075964,-0.822171 z m -0.097152,1.062466 c -0.0278,0.33597 -0.052431,0.671761 -0.074931,1.007689 0.0225,-0.336439 0.047231,-0.67224 0.074931,-1.007689 z m -0.076481,1.02526 c -0.022799,0.341471 -0.042635,0.683395 -0.059945,1.024745 0.017399,-0.342001 0.037235,-0.683716 0.059945,-1.024745 z m -0.063562,1.088305 c -0.027048,0.543743 -0.046534,1.089017 -0.059945,1.635043 0.013443,-0.544758 0.032727,-1.089808 0.059945,-1.635043 z m -0.059945,1.635043 c -0.00675,0.273646 -0.00705,0.547143 -0.010335,0.820621 0.00328,-0.273542 0.00363,-0.547605 0.010335,-0.820621 z m -0.010335,0.820621 c -0.00314,0.261485 -0.00982,0.522505 -0.00982,0.78445 h 0.00156 c -1.3e-5,-0.26126 0.00512,-0.523009 0.00827,-0.78445 z m -0.00827,0.78445 c 8.202e-4,17.013285 6.6865327,33.612021 19.036047,45.961532 L 31.882807,78.933702 C 23.66876,75.680317 18.888449,67.073913 23.74222,55.816768 Z"
         style="opacity:0.993;fill:#ec4200;fill-opacity:1;fill-rule:evenodd;stroke-width:0.132291"
         id="path909" />
    </g>
  </g>
</svg>
