<?xml version="1.0" encoding="UTF-8" standalone="no"?>
<svg
   xmlns:dc="http://purl.org/dc/elements/1.1/"
   xmlns:cc="http://creativecommons.org/ns#"
   xmlns:rdf="http://www.w3.org/1999/02/22-rdf-syntax-ns#"
   xmlns:svg="http://www.w3.org/2000/svg"
   xmlns="http://www.w3.org/2000/svg"
   xmlns:sodipodi="http://sodipodi.sourceforge.net/DTD/sodipodi-0.dtd"
   xmlns:inkscape="http://www.inkscape.org/namespaces/inkscape"
   sodipodi:docname="logo_noir_text.svg"
   inkscape:version="1.0 (4035a4fb49, 2020-05-01)"
   id="svg8"
   version="1.1"
   viewBox="0 0 165.2871 166.07122"
   height="166.07121mm"
   width="165.28709mm">
  <defs
     id="defs2">
    <rect
       id="rect900"
       height="115.27136"
       width="326.11316"
       y="110.45093"
       x="-104.1634" />
  </defs>
  <sodipodi:namedview
     inkscape:window-maximized="1"
     inkscape:window-y="799"
     inkscape:window-x="8629"
     inkscape:window-height="1541"
     inkscape:window-width="2880"
     inkscape:snap-global="true"
     showgrid="false"
     inkscape:document-rotation="0"
     inkscape:current-layer="g911"
     inkscape:document-units="mm"
     inkscape:cy="405.29598"
     inkscape:cx="261.6366"
     inkscape:zoom="2.6424886"
     inkscape:pageshadow="2"
     inkscape:pageopacity="0.0"
     borderopacity="1.0"
     bordercolor="#666666"
     pagecolor="#ffffff"
     id="base"
     fit-margin-top="0.1"
     fit-margin-left="0.1"
     fit-margin-right="0.1"
     fit-margin-bottom="0.1" />
  <metadata
     id="metadata5">
    <rdf:RDF>
      <cc:Work
         rdf:about="">
        <dc:format>image/svg+xml</dc:format>
        <dc:type
           rdf:resource="http://purl.org/dc/dcmitype/StillImage" />
        <dc:title></dc:title>
      </cc:Work>
    </rdf:RDF>
  </metadata>
  <g
     inkscape:label="Noir"
     inkscape:groupmode="layer"
     id="g37"
     style="display:inline"
     transform="translate(-23.977523,-7.8642034)" />
  <g
     style="display:inline"
     inkscape:label="arc 1"
     id="layer3"
     inkscape:groupmode="layer"
     transform="translate(-23.977523,-7.8642034)" />
  <g
     inkscape:groupmode="layer"
     id="g903"
     inkscape:label="arc 2"
     style="display:inline"
     transform="translate(-23.977523,-7.8642034)" />
  <g
     style="display:inline"
     inkscape:label="arc 3"
     id="g907"
     inkscape:groupmode="layer"
     transform="translate(-23.977523,-7.8642034)" />
  <g
     inkscape:groupmode="layer"
     id="g911"
     inkscape:label="arc 4"
     style="display:inline"
     transform="translate(-23.977523,-7.8642034)">
    <g
       inkscape:export-ydpi="96"
       inkscape:export-xdpi="96"
       transform="translate(41.078523,7.9642034)"
       id="g912">
      <g
         id="g941"
         transform="translate(9.9993896,9.3699861)">
        <path
           id="circle35"
           style="display:inline;opacity:0.993;fill:#000000;fill-rule:evenodd;stroke-width:0.550001"
           d="m 208.2832,0 a 207.87402,207.87402 0 0 0 -147.398434,60.884766 207.87402,207.87402 0 0 0 0,293.978514 207.87402,207.87402 0 0 0 293.978514,0 207.87402,207.87402 0 0 0 0,-293.978514 A 207.87402,207.87402 0 0 0 208.2832,0 Z m 1.625,57.443359 c 4.81796,6.589493 27.37913,52.995861 85.49024,103.826171 88.85471,92.5546 4.45943,172.77301 -75.61719,126.77344 11.56603,52.4911 22.98138,56.50989 33.85156,70.54883 H 168.94922 C 177.94,344.68914 186.08544,340.53571 200.89453,287.74414 122.4631,336.12905 25.220399,262.6158 124.41992,161.26953 178.05032,111.38225 205.28531,62.933614 209.9082,57.443359 Z"
           transform="scale(0.26458333)" />
        <path
           id="path875"
           style="display:inline;opacity:0.993;fill:#ec4200;fill-opacity:1;fill-rule:evenodd;stroke-width:0.499997"
           d="M 381.58789,36.539062 275.44336,142.68359 c 6.13212,6.08308 12.76951,12.30066 19.95508,18.58594 16.30066,16.97942 26.75087,33.53834 32.48633,48.98438 H 453.53516 C 453.53206,145.95169 428.26327,83.214441 381.58789,36.539062 Z m 71.94727,173.714848 c 5e-5,1.19205 -0.0217,2.38509 -0.0391,3.57812 0.0173,-1.19265 0.0449,-2.38293 0.0449,-3.57812 z m -0.0391,3.57812 c -0.0116,0.80269 -0.01,1.60672 -0.0293,2.4082 0.0196,-0.80325 0.0176,-1.60532 0.0293,-2.4082 z m -0.0293,2.4082 c -0.0508,2.08495 -0.12435,4.17102 -0.22852,6.25782 0.10352,-2.08099 0.17785,-4.16798 0.22852,-6.25782 z m -0.24219,6.5 c -0.0658,1.2926 -0.14077,2.58217 -0.22656,3.8711 0.0862,-1.2906 0.16117,-2.58092 0.22656,-3.8711 z m -0.23242,3.9375 c -0.085,1.27163 -0.17851,2.54079 -0.28321,3.8086 0.10508,-1.26981 0.19817,-2.5389 0.28321,-3.8086 z m -0.36328,4.71875 c -0.0892,1.03631 -0.18507,2.07185 -0.28711,3.10547 0.1028,-1.03525 0.19791,-2.07014 0.28711,-3.10547 z m -0.41016,4.28321 c -0.093,0.89582 -0.18626,1.7918 -0.28906,2.68554 0.10318,-0.89495 0.19571,-1.79044 0.28906,-2.68554 z m -0.50586,4.46875 c -0.0911,0.74449 -0.18141,1.48749 -0.2793,2.23047 0.0983,-0.744 0.18784,-1.48628 0.2793,-2.23047 z m -0.5293,4.03906 c -0.099,0.71104 -0.19533,1.42324 -0.30078,2.13281 0.10545,-0.71051 0.20138,-1.42203 0.30078,-2.13281 z m -0.65429,4.41016 c -0.0854,0.53907 -0.16937,1.07883 -0.25782,1.61718 0.0888,-0.53896 0.17278,-1.07807 0.25782,-1.61718 z m -0.76758,4.57422 c -0.0522,0.29404 -0.10296,0.58707 -0.15625,0.88085 0.0533,-0.29404 0.10409,-0.58654 0.15625,-0.88085 z m -0.72461,3.89453 c -0.068,0.3496 -0.13201,0.70151 -0.20117,1.05078 0.0695,-0.34961 0.13352,-0.70099 0.20117,-1.05078 z m -0.87891,4.32421 c -0.0427,0.20145 -0.0839,0.4041 -0.12695,0.60547 0.0431,-0.20145 0.0842,-0.40383 0.12695,-0.60547 z m -8.65625,30.70899 c -0.15534,0.43907 -0.30521,0.88024 -0.46289,1.31836 0.15761,-0.43812 0.30786,-0.87903 0.46289,-1.31836 z m -4.7832,12.4707 c -0.89164,2.14385 -1.81438,4.27449 -2.76563,6.39063 0.95027,-2.11429 1.87357,-4.24431 2.76563,-6.39063 z m -5.71289,12.70703 c -1.01117,2.08899 -2.05158,4.16193 -3.12109,6.22071 1.06863,-2.05666 2.10895,-4.13 3.12109,-6.22071 z m -3.12109,6.22071 c -1.06952,2.05877 -2.16775,4.10352 -3.29493,6.13086 1.12624,-2.02549 2.22428,-4.07033 3.29493,-6.13086 z m -11.4961,19.81445 c -0.5842,0.90652 -1.17737,1.80796 -1.77344,2.70703 0.59634,-0.89888 1.18871,-1.79972 1.77344,-2.70703 z m -2.23437,3.4043 c -0.62283,0.93229 -1.25311,1.85922 -1.88868,2.7832 0.63523,-0.92277 1.26585,-1.85113 1.88868,-2.7832 z m -2.19922,3.23632 c -0.53329,0.77167 -1.07678,1.53915 -1.61914,2.30469 0.5424,-0.76577 1.08517,-1.53257 1.61914,-2.30469 z m -2.40625,3.41797 c -0.41556,0.57967 -0.83749,1.15406 -1.25781,1.73047 0.42047,-0.57604 0.8421,-1.15065 1.25781,-1.73047 z m -2.36524,3.24414 c -0.42962,0.57933 -0.86583,1.15297 -1.30078,1.72852 0.43487,-0.57543 0.87101,-1.14904 1.30078,-1.72852 z m -2.38671,3.16016 c -0.42025,0.54799 -0.84656,1.09205 -1.27149,1.63672 0.42535,-0.54452 0.85086,-1.08831 1.27149,-1.63672 z m -2.48438,3.1875 c -0.35868,0.45203 -0.72209,0.90007 -1.08398,1.34961 0.3617,-0.44931 0.72527,-0.89788 1.08398,-1.34961 z m -2.55273,3.16211 c -0.23963,0.29291 -0.48524,0.58146 -0.72657,0.87305 0.24227,-0.29065 0.4863,-0.5804 0.72657,-0.87305 z"
           transform="scale(0.26458333)" />
        <path
           id="path901"
           style="display:inline;opacity:0.993;fill:#ec4200;fill-opacity:1;fill-rule:evenodd;stroke-width:0.499997"
           d="M 207.2832,-35.414062 C 143.18783,-35.256502 80.692428,-9.993201 34.160156,36.539062 L 141.83398,144.21289 c 37.56717,-38.66297 58.92756,-73.353998 66.03907,-83.910156 v -95.710937 c -0.19651,1.1e-5 -0.39337,-0.0063 -0.58985,-0.0059 z m 0.58985,0.0059 c 1.19075,-6.7e-5 2.38248,0.02177 3.57422,0.03906 -1.19098,-0.01723 -2.38072,-0.04492 -3.57422,-0.04492 z m 3.57422,0.03906 c 0.80374,0.01163 1.60958,0.0098 2.41211,0.0293 -0.80457,-0.01959 -1.60793,-0.01763 -2.41211,-0.0293 z m 2.41211,0.0293 c 2.08559,0.05078 4.17232,0.126265 6.25976,0.230469 -2.08162,-0.103549 -4.16929,-0.179802 -6.25976,-0.230469 z m 6.5,0.242188 c 1.29259,0.06576 2.58411,0.140729 3.87304,0.226562 -1.29059,-0.08617 -2.5829,-0.161139 -3.87304,-0.226562 z m 3.93945,0.232422 c 1.27158,0.08504 2.54075,0.17851 3.80859,0.283203 -1.26981,-0.105071 -2.53894,-0.198164 -3.80859,-0.283203 z m 4.71875,0.363281 c 1.03634,0.0892 2.07188,0.185024 3.10547,0.287109 -1.03525,-0.102803 -2.07015,-0.197912 -3.10547,-0.287109 z m 4.2832,0.410156 c 0.89579,0.09298 1.7918,0.186259 2.68555,0.289063 -0.89499,-0.103144 -1.79044,-0.195709 -2.68555,-0.289063 z m 4.4668,0.505859 c 0.74453,0.09109 1.48944,0.181408 2.23242,0.279297 -0.744,-0.09827 -1.4882,-0.187832 -2.23242,-0.279297 z m 4.04101,0.529297 c 0.71105,0.09902 1.42321,0.195333 2.13282,0.300782 -0.71052,-0.105449 -1.42204,-0.20138 -2.13282,-0.300782 z m 4.41016,0.654297 c 0.53911,0.08534 1.07879,0.169372 1.61719,0.257813 -0.53893,-0.08886 -1.07812,-0.172773 -1.61719,-0.257813 z m 4.57422,0.767578 c 0.29405,0.05204 0.58704,0.102959 0.88086,0.15625 -0.29405,-0.05314 -0.58659,-0.104092 -0.88086,-0.15625 z m 3.89453,0.72461 c 0.34961,0.06799 0.70152,0.132006 1.05078,0.201172 -0.34961,-0.06954 -0.70095,-0.133557 -1.05078,-0.201172 z m 4.32422,0.878906 c 0.20145,0.04271 0.40413,0.08383 0.60547,0.126953 -0.20145,-0.04316 -0.40391,-0.08417 -0.60547,-0.126953 z m 30.70898,8.65625 c 0.43911,0.155301 0.88028,0.30519 1.31836,0.462891 -0.43816,-0.157569 -0.87906,-0.307836 -1.31836,-0.462891 z m 12.47071,4.783203 c 2.14384,0.891644 4.27449,1.81438 6.39062,2.765625 -2.11428,-0.950265 -4.24431,-1.873565 -6.39062,-2.765625 z m 12.70703,5.712891 c 2.08899,1.0111649 4.16192,2.0515822 6.2207,3.1210935 -2.05665,-1.0686339 -4.13,-2.1089595 -6.2207,-3.1210935 z m 6.2207,3.1210935 c 2.05878,1.0695113 4.10352,2.1677449 6.13086,3.2949219 -2.02548,-1.1262374 -4.07033,-2.2242733 -6.13086,-3.2949219 z m 19.81445,11.4960937 c 0.90652,0.5842092 1.80796,1.177372 2.70703,1.7734376 -0.89884,-0.596349 -1.79971,-1.1887031 -2.70703,-1.7734376 z m 3.4043,2.234375 c 0.9323,0.6228246 1.85922,1.2531066 2.7832,1.8886719 -0.92277,-0.6352176 -1.85109,-1.2658548 -2.7832,-1.8886719 z m 3.23633,2.1992188 c 0.77166,0.53328 1.53911,1.0767898 2.30469,1.6191406 -0.76581,-0.5423735 -1.53253,-1.0851878 -2.30469,-1.6191406 z m 3.41797,2.40625 c 0.57966,0.415567 1.15405,0.83748 1.73047,1.257813 -0.57604,-0.420484 -1.15066,-0.842095 -1.73047,-1.257813 z m 3.24414,2.365234 c 0.57929,0.429646 1.15297,0.867775 1.72851,1.302735 -0.57543,-0.434865 -1.14907,-0.872942 -1.72851,-1.302735 z m 3.16015,2.386719 c 0.548,0.420246 1.09206,0.846548 1.63672,1.271484 -0.54451,-0.425336 -1.08831,-0.850841 -1.63672,-1.271484 z m 3.1875,2.484375 c 0.45211,0.358564 0.90008,0.722099 1.34961,1.083985 -0.44934,-0.361663 -0.89788,-0.725266 -1.34961,-1.083985 z m 3.16211,2.552735 c 0.29292,0.239546 0.58146,0.485228 0.87305,0.726562 -0.29065,-0.242419 -0.5804,-0.486298 -0.87305,-0.726562 z"
           transform="scale(0.26458333)" />
        <path
           id="path905"
           style="display:inline;opacity:0.993;fill:#ec4200;fill-opacity:1;fill-rule:evenodd;stroke-width:0.499997"
           d="m 219.78125,288.04297 c 11.56603,52.4911 22.98138,56.50989 33.85156,70.54883 H 207.875 v 97.32226 c 64.30156,-0.004 127.03799,-25.27236 173.71289,-71.94726 L 294.0625,296.44141 c -20.98192,8.2094 -47.86429,6.77664 -74.28125,-8.39844 z M 207.875,455.91406 c -0.98578,6e-5 -1.97252,-0.0194 -2.95898,-0.0312 0.98634,0.0118 1.97091,0.0371 2.95898,0.0371 z m -2.95898,-0.0312 c -1.03583,-0.0124 -2.07361,-0.0137 -3.10743,-0.0391 1.0365,0.0256 2.07156,0.0266 3.10743,0.0391 z m -3.10743,-0.0391 c -2.05893,-0.0508 -4.11896,-0.12369 -6.17968,-0.22656 2.05508,0.10223 4.11596,0.17587 6.17968,0.22656 z M 51.128906,399.41211 c 0.290646,0.24227 0.580398,0.4863 0.873047,0.72656 -0.292913,-0.23962 -0.581456,-0.48524 -0.873047,-0.72656 z m 2.685547,2.19531 c 0.449348,0.3617 0.89788,0.72527 1.349609,1.08399 -0.452107,-0.35868 -0.900072,-0.7221 -1.349609,-1.08399 z m 2.900391,2.29688 c 0.544516,0.42534 1.088309,0.85281 1.636718,1.27343 -0.547993,-0.42024 -1.092051,-0.8485 -1.636718,-1.27343 z m 3.068359,2.35742 c 0.575433,0.43487 1.149076,0.87097 1.728516,1.30078 -0.579288,-0.42966 -1.152969,-0.86583 -1.728516,-1.30078 z m 3.242188,2.4082 c 0.576037,0.42047 1.150651,0.8421 1.730468,1.25781 -0.579666,-0.41555 -1.154053,-0.83749 -1.730468,-1.25781 z m 2.84375,2.04492 c 0.765807,0.5424 1.53253,1.08521 2.304687,1.61914 -0.771666,-0.53329 -1.539106,-1.07677 -2.304687,-1.61914 z m 2.757812,1.92969 c 0.922772,0.63523 1.851096,1.26588 2.783203,1.88867 -0.932296,-0.62283 -1.859222,-1.2531 -2.783203,-1.88867 z m 3.480469,2.34961 c 0.898847,0.59637 1.799718,1.18871 2.707031,1.77344 -0.90652,-0.5842 -1.807957,-1.17737 -2.707031,-1.77344 z m 16.390625,9.97461 c 2.025484,1.12624 4.070329,2.22427 6.130859,3.29492 -2.058776,-1.06951 -4.103521,-2.16774 -6.130859,-3.29492 z m 6.130859,3.29492 c 2.056652,1.06864 4.130003,2.10896 6.220704,3.1211 -2.08899,-1.01117 -4.161927,-2.05159 -6.220704,-3.1211 z m 6.220704,3.1211 c 4.17014,2.01881 8.40659,3.92552 12.70703,5.71289 -4.29148,-1.78487 -8.52905,-3.69056 -12.70703,-5.71289 z m 23.85937,10.0332 c 0.43817,0.15761 0.87907,0.30782 1.31836,0.46289 -0.4391,-0.15534 -0.88027,-0.30517 -1.31836,-0.46289 z m 31.42188,8.99219 c 0.20145,0.0431 0.40391,0.0842 0.60547,0.12695 -0.20145,-0.0427 -0.40414,-0.0839 -0.60547,-0.12695 z m 3.87891,0.80468 c 0.3496,0.0695 0.70094,0.13352 1.05078,0.20118 -0.34961,-0.068 -0.70152,-0.13201 -1.05078,-0.20118 z m 4.06445,0.77149 c 0.29405,0.0533 0.58658,0.10214 0.88086,0.15429 -0.29405,-0.0522 -0.58704,-0.101 -0.88086,-0.15429 z m 3.83789,0.66406 c 0.53892,0.0888 1.07811,0.17277 1.61719,0.25781 -0.53911,-0.0854 -1.0788,-0.16937 -1.61719,-0.25781 z m 3.89453,0.61133 c 0.71051,0.10545 1.42204,0.20138 2.13281,0.30078 -0.71104,-0.099 -1.4232,-0.19533 -2.13281,-0.30078 z m 3.94141,0.55078 c 0.744,0.0983 1.48624,0.18783 2.23047,0.2793 -0.74453,-0.0911 -1.48749,-0.18141 -2.23047,-0.2793 z m 4.01367,0.49609 c 0.89499,0.10318 1.79044,0.19571 2.68555,0.28907 -0.89579,-0.093 -1.79181,-0.18626 -2.68555,-0.28907 z m 3.86328,0.41211 c 1.03525,0.10281 2.07014,0.19792 3.10547,0.28711 -1.03635,-0.0892 -2.07188,-0.18506 -3.10547,-0.28711 z m 4.01562,0.36719 c 1.26981,0.10507 2.53894,0.19816 3.8086,0.2832 -1.27159,-0.085 -2.54075,-0.17851 -3.8086,-0.2832 z m 3.875,0.28906 c 1.2906,0.0862 2.58291,0.16118 3.87305,0.22657 -1.2926,-0.0658 -2.58411,-0.14077 -3.87305,-0.22657 z"
           transform="scale(0.26458333)" />
        <path
           id="path909"
           style="opacity:0.993;fill:#ec4200;fill-opacity:1;fill-rule:evenodd;stroke-width:0.499997"
           d="m 18.714844,53.507812 c -0.242419,0.290646 -0.486298,0.580399 -0.726563,0.873047 0.239547,-0.292913 0.485229,-0.581456 0.726563,-0.873047 z m -2.195313,2.685547 c -0.361663,0.449348 -0.725265,0.897881 -1.083984,1.34961 0.358564,-0.452107 0.722098,-0.900073 1.083984,-1.34961 z m -2.296875,2.900391 c -0.425336,0.544517 -0.850842,1.088309 -1.271484,1.636719 0.420246,-0.547994 0.846548,-1.092051 1.271484,-1.636719 z m -2.357422,3.068359 c -0.434865,0.575433 -0.870988,1.15103 -1.300781,1.730469 0.429645,-0.579288 0.865822,-1.154922 1.300781,-1.730469 z M 9.4570312,65.40625 C 9.0365475,65.982288 8.6149365,66.556901 8.1992188,67.136719 8.6147854,66.557053 9.0366987,65.982666 9.4570312,65.40625 Z m -2.0449218,2.841797 c -0.5423736,0.765808 -1.0851879,1.53253 -1.6191406,2.304687 0.53328,-0.771666 1.0767897,-1.539106 1.6191406,-2.304687 z M 5.4824219,71.007812 C 4.8472042,71.930584 4.216567,72.856955 3.59375,73.789062 4.2165746,72.856766 4.8468565,71.931794 5.4824219,71.007812 Z m -2.3496094,3.478516 c -0.596349,0.898847 -1.188703,1.799718 -1.7734375,2.707031 0.5842091,-0.906519 1.177372,-1.807957 1.7734375,-2.707031 z m -9.9746094,16.390625 c -1.1262374,2.025484 -2.2242732,4.070329 -3.2949221,6.130859 1.0695115,-2.058776 2.1677451,-4.10352 3.2949221,-6.130859 z m -3.2949221,6.130859 c -1.068634,2.056654 -2.108959,4.129998 -3.121093,6.220708 1.011165,-2.08899 2.051582,-4.161931 3.121093,-6.220708 z m -6.068359,12.537108 c -0.950266,2.11429 -1.873565,4.24431 -2.765625,6.39063 0.891643,-2.14385 1.814379,-4.27449 2.765625,-6.39063 z m -7.085938,17.54297 c -0.157568,0.43816 -0.307835,0.87907 -0.46289,1.31836 0.155301,-0.43911 0.30519,-0.88027 0.46289,-1.31836 z m -8.992187,31.42188 c -0.04316,0.20144 -0.08417,0.4039 -0.126953,0.60546 0.04271,-0.20144 0.08383,-0.40413 0.126953,-0.60546 z m -0.804688,3.8789 c -0.06954,0.34961 -0.133556,0.70095 -0.201171,1.05078 0.06799,-0.3496 0.132006,-0.70151 0.201171,-1.05078 z m -0.769531,4.06445 c -0.05314,0.29405 -0.104092,0.58854 -0.15625,0.88282 0.05204,-0.29405 0.102959,-0.58899 0.15625,-0.88282 z m -0.666016,3.8379 c -0.08886,0.53892 -0.172773,1.07811 -0.257812,1.61718 0.08534,-0.53911 0.169372,-1.07879 0.257812,-1.61718 z m -0.611328,3.89453 c -0.105448,0.71051 -0.201379,1.42203 -0.300781,2.13281 0.09902,-0.71104 0.195333,-1.42321 0.300781,-2.13281 z m -0.550781,3.9414 c -0.09827,0.744 -0.187832,1.4882 -0.279297,2.23243 0.09109,-0.74453 0.181407,-1.48945 0.279297,-2.23243 z m -0.496094,4.01367 c -0.103143,0.895 -0.195708,1.79045 -0.289062,2.68555 0.09298,-0.89578 0.186259,-1.7918 0.289062,-2.68555 z m -0.412109,3.86329 c -0.102803,1.03525 -0.197913,2.07209 -0.287109,3.10742 0.0892,-1.03635 0.185024,-2.07384 0.287109,-3.10742 z m -0.367188,4.01562 c -0.10507,1.26981 -0.198163,2.53894 -0.283203,3.80859 0.08504,-1.27158 0.178511,-2.54075 0.283203,-3.80859 z m -0.289062,3.875 c -0.08617,1.2906 -0.161139,2.58291 -0.226562,3.87305 0.06576,-1.2926 0.140729,-2.58412 0.226562,-3.87305 z m -0.240234,4.11328 c -0.102229,2.05509 -0.175875,4.11597 -0.226563,6.17969 0.05081,-2.05893 0.123692,-4.11896 0.226563,-6.17969 z m -0.226563,6.17969 c -0.02552,1.03425 -0.02663,2.06794 -0.03906,3.10156 0.0124,-1.03386 0.01372,-2.06969 0.03906,-3.10156 z m -0.03906,3.10156 c -0.01186,0.98829 -0.03711,1.97482 -0.03711,2.96485 h 0.0059 c -4.9e-5,-0.98744 0.01936,-1.97673 0.03125,-2.96485 z m -0.03125,2.96485 c 0.0031,64.30218 25.271935,127.03756 71.947265,173.71289 L 120.50195,297.625 C 89.456732,285.32874 71.389416,252.8006 89.734375,210.25391 Z"
           transform="scale(0.26458333)" />
      </g>
      <text
         xml:space="preserve"
         style="font-size:31.75px;line-height:1.25;font-family:Poppins;-inkscape-font-specification:Poppins;display:inline;stroke-width:0.264583"
         x="-19.38225"
         y="165.61722"
         id="text842-5-4"><tspan
           sodipodi:role="line"
           id="tspan840-2-1"
           x="-19.38225"
           y="165.61722"
           style="font-style:normal;font-variant:normal;font-weight:600;font-stretch:normal;font-size:31.75px;font-family:Poppins;-inkscape-font-specification:'Poppins Semi-Bold';stroke-width:0.264583">Poker Tool</tspan></text>
    </g>
    <text
       style="font-size:10.5833px;line-height:1.25;font-family:Poppins;-inkscape-font-specification:Poppins;white-space:pre;shape-inside:url(#rect900);"
       id="text898"
       xml:space="preserve" />
  </g>
</svg>
